<mxfile host="app.diagrams.net" modified="2024-03-11T17:29:50.140Z" agent="Mozilla/5.0 (Windows NT 10.0; Win64; x64) AppleWebKit/537.36 (KHTML, like Gecko) Chrome/124.0.0.0 Safari/537.36 Edg/124.0.0.0" etag="9LuBZTrKQ0CN_0gdDswj" version="24.0.1" type="device" pages="2">
  <diagram id="uOsoa1zXK509N2_YLro7" name="Architecture">
    <mxGraphModel dx="2253" dy="751" grid="1" gridSize="10" guides="1" tooltips="1" connect="1" arrows="1" fold="1" page="1" pageScale="1" pageWidth="827" pageHeight="1169" math="0" shadow="0">
      <root>
        <mxCell id="0" />
        <mxCell id="1" parent="0" />
        <mxCell id="GDJU-_h7cvTp5wzcLNWm-16" value="Thilo Architecture" style="rounded=0;whiteSpace=wrap;html=1;align=left;verticalAlign=top;fillColor=#d5e8d4;strokeColor=#82b366;" parent="1" vertex="1">
          <mxGeometry x="-320" y="270" width="1190" height="610" as="geometry" />
        </mxCell>
        <mxCell id="GDJU-_h7cvTp5wzcLNWm-17" value="Client" style="rounded=0;whiteSpace=wrap;html=1;align=left;verticalAlign=top;" parent="1" vertex="1">
          <mxGeometry x="150" y="549" width="210" height="80" as="geometry" />
        </mxCell>
        <mxCell id="GDJU-_h7cvTp5wzcLNWm-18" value="&lt;b&gt;Web UI - React JS&lt;/b&gt;&lt;br&gt;thilo.scout.ch" style="rounded=0;whiteSpace=wrap;html=1;align=center;verticalAlign=middle;" parent="1" vertex="1">
          <mxGeometry x="220" y="559" width="120" height="60" as="geometry" />
        </mxCell>
        <mxCell id="GDJU-_h7cvTp5wzcLNWm-19" value="Server" style="rounded=0;whiteSpace=wrap;html=1;align=left;verticalAlign=top;" parent="1" vertex="1">
          <mxGeometry x="150" y="660" width="210" height="80" as="geometry" />
        </mxCell>
        <mxCell id="GDJU-_h7cvTp5wzcLNWm-20" value="&lt;b&gt;Strapi API&lt;br&gt;&lt;/b&gt;api.thilo.scout.ch" style="rounded=0;whiteSpace=wrap;html=1;align=center;verticalAlign=middle;" parent="1" vertex="1">
          <mxGeometry x="220" y="670" width="120" height="60" as="geometry" />
        </mxCell>
        <mxCell id="GDJU-_h7cvTp5wzcLNWm-21" value="REST (https)" style="endArrow=classic;startArrow=classic;html=1;rounded=0;entryX=0.5;entryY=1;entryDx=0;entryDy=0;" parent="1" source="GDJU-_h7cvTp5wzcLNWm-20" target="GDJU-_h7cvTp5wzcLNWm-18" edge="1">
          <mxGeometry width="50" height="50" relative="1" as="geometry">
            <mxPoint x="200" y="679" as="sourcePoint" />
            <mxPoint x="250" y="629" as="targetPoint" />
          </mxGeometry>
        </mxCell>
        <mxCell id="GDJU-_h7cvTp5wzcLNWm-22" value="Data" style="rounded=0;whiteSpace=wrap;html=1;align=left;verticalAlign=top;" parent="1" vertex="1">
          <mxGeometry x="80" y="769" width="180" height="92" as="geometry" />
        </mxCell>
        <mxCell id="GDJU-_h7cvTp5wzcLNWm-23" value="TCP&amp;nbsp;27017&amp;nbsp;" style="endArrow=none;html=1;rounded=0;entryX=0.5;entryY=1;entryDx=0;entryDy=0;exitX=0.5;exitY=0;exitDx=0;exitDy=0;" parent="1" source="GDJU-_h7cvTp5wzcLNWm-24" target="GDJU-_h7cvTp5wzcLNWm-20" edge="1">
          <mxGeometry x="0.3166" y="2" width="50" height="50" relative="1" as="geometry">
            <mxPoint x="311" y="788" as="sourcePoint" />
            <mxPoint x="260" y="759" as="targetPoint" />
            <mxPoint as="offset" />
          </mxGeometry>
        </mxCell>
        <mxCell id="GDJU-_h7cvTp5wzcLNWm-24" value="Postgres Datenbank" style="aspect=fixed;perimeter=ellipsePerimeter;html=1;align=center;shadow=0;dashed=0;spacingTop=3;image;image=img/lib/active_directory/generic_server.svg;fontFamily=Helvetica;fontSize=12;fontColor=#000000;strokeColor=#000000;fillColor=#ffffff;labelBackgroundColor=none;" parent="1" vertex="1">
          <mxGeometry x="160" y="780.9999999999999" width="38.5" height="50" as="geometry" />
        </mxCell>
        <mxCell id="GDJU-_h7cvTp5wzcLNWm-25" value="" style="verticalLabelPosition=bottom;html=1;verticalAlign=top;align=center;strokeColor=none;fillColor=#00BEF2;shape=mxgraph.azure.code_file;pointerEvents=1;" parent="1" vertex="1">
          <mxGeometry x="182" y="801.3" width="32.5" height="30" as="geometry" />
        </mxCell>
        <mxCell id="GDJU-_h7cvTp5wzcLNWm-26" value="" style="verticalLabelPosition=bottom;html=1;verticalAlign=top;align=center;strokeColor=none;fillColor=#00BEF2;shape=mxgraph.azure.cloud;labelBackgroundColor=none;" parent="1" vertex="1">
          <mxGeometry x="152" y="811.3" width="30" height="20" as="geometry" />
        </mxCell>
        <mxCell id="GDJU-_h7cvTp5wzcLNWm-27" value="CDN" style="rounded=0;whiteSpace=wrap;html=1;align=left;verticalAlign=top;" parent="1" vertex="1">
          <mxGeometry x="280" y="769" width="180" height="92" as="geometry" />
        </mxCell>
        <mxCell id="GDJU-_h7cvTp5wzcLNWm-28" value="Media Library" style="aspect=fixed;perimeter=ellipsePerimeter;html=1;align=center;shadow=0;dashed=0;spacingTop=3;image;image=img/lib/active_directory/generic_server.svg;fontFamily=Helvetica;fontSize=12;fontColor=#000000;strokeColor=#000000;fillColor=#ffffff;labelBackgroundColor=none;" parent="1" vertex="1">
          <mxGeometry x="378" y="780.9999999999999" width="38.5" height="50" as="geometry" />
        </mxCell>
        <mxCell id="GDJU-_h7cvTp5wzcLNWm-29" value="REST (https)" style="endArrow=none;html=1;rounded=0;entryX=0.894;entryY=1.014;entryDx=0;entryDy=0;entryPerimeter=0;" parent="1" source="GDJU-_h7cvTp5wzcLNWm-28" target="GDJU-_h7cvTp5wzcLNWm-20" edge="1">
          <mxGeometry width="50" height="50" relative="1" as="geometry">
            <mxPoint x="177.50809207722023" y="808.0784997336926" as="sourcePoint" />
            <mxPoint x="290" y="759" as="targetPoint" />
          </mxGeometry>
        </mxCell>
        <mxCell id="51C_-ku2XXWJB70NUWzl-1" value="Server" style="rounded=0;whiteSpace=wrap;html=1;align=left;verticalAlign=top;" parent="1" vertex="1">
          <mxGeometry x="-80" y="660" width="210" height="80" as="geometry" />
        </mxCell>
        <mxCell id="51C_-ku2XXWJB70NUWzl-2" value="&lt;b&gt;Link Shortner&lt;br&gt;&lt;/b&gt;link.thilo.scout.ch" style="rounded=0;whiteSpace=wrap;html=1;align=center;verticalAlign=middle;" parent="1" vertex="1">
          <mxGeometry x="-10" y="670" width="120" height="60" as="geometry" />
        </mxCell>
        <mxCell id="51C_-ku2XXWJB70NUWzl-3" value="TCP&amp;nbsp;27017&amp;nbsp;" style="endArrow=none;html=1;rounded=0;entryX=0.555;entryY=0.99;entryDx=0;entryDy=0;entryPerimeter=0;" parent="1" target="51C_-ku2XXWJB70NUWzl-2" edge="1">
          <mxGeometry x="0.2536" y="-2" width="50" height="50" relative="1" as="geometry">
            <mxPoint x="170" y="790" as="sourcePoint" />
            <mxPoint x="290" y="740" as="targetPoint" />
            <mxPoint as="offset" />
          </mxGeometry>
        </mxCell>
        <mxCell id="51C_-ku2XXWJB70NUWzl-4" value="&lt;h1&gt;Frontend&lt;/h1&gt;&lt;p&gt;React Single Page Application, welche die Informationen aus dem Backend anzeigt&lt;/p&gt;" style="text;html=1;strokeColor=none;fillColor=none;spacing=5;spacingTop=-20;whiteSpace=wrap;overflow=hidden;rounded=0;" parent="1" vertex="1">
          <mxGeometry x="390" y="540" width="190" height="100" as="geometry" />
        </mxCell>
        <mxCell id="51C_-ku2XXWJB70NUWzl-5" value="&lt;h1&gt;Backend&lt;/h1&gt;&lt;p&gt;Headless CMS mit welchem die Informationen verwaltet werden können. Bietet API Endpunkte für das Frontend&lt;/p&gt;" style="text;html=1;strokeColor=none;fillColor=none;spacing=5;spacingTop=-20;whiteSpace=wrap;overflow=hidden;rounded=0;" parent="1" vertex="1">
          <mxGeometry x="390" y="650" width="222" height="100" as="geometry" />
        </mxCell>
        <mxCell id="51C_-ku2XXWJB70NUWzl-6" value="&lt;h1&gt;Link Shortener Service&lt;/h1&gt;&lt;p&gt;Ermöglicht die Verbindung zwischen Buch und Frontend.&amp;nbsp;&lt;br&gt;Ermöglicht es kurze Links zu erstellen, welche innerhalb der Print-Version gedruckt werden könnne. Diese Verweisen dann auf eine spezifische Seite innerhalb des Frontends.&lt;/p&gt;" style="text;html=1;strokeColor=none;fillColor=none;spacing=5;spacingTop=-20;whiteSpace=wrap;overflow=hidden;rounded=0;" parent="1" vertex="1">
          <mxGeometry x="-312" y="660" width="222" height="180" as="geometry" />
        </mxCell>
        <mxCell id="9G3A0hlRlRlF3BapFDBi-1" value="Pfadi" style="shape=image;verticalLabelPosition=bottom;labelBackgroundColor=default;verticalAlign=top;aspect=fixed;imageAspect=0;image=https://cdn-icons-png.flaticon.com/512/2733/2733336.png;" parent="1" vertex="1">
          <mxGeometry x="191" y="283" width="130" height="130" as="geometry" />
        </mxCell>
        <mxCell id="9G3A0hlRlRlF3BapFDBi-2" value="Thilo Buch" style="sketch=0;pointerEvents=1;shadow=0;dashed=0;html=1;strokeColor=none;fillColor=#505050;labelPosition=center;verticalLabelPosition=bottom;verticalAlign=top;outlineConnect=0;align=center;shape=mxgraph.office.concepts.address_book;" parent="1" vertex="1">
          <mxGeometry x="-70" y="360" width="55" height="44" as="geometry" />
        </mxCell>
        <mxCell id="9G3A0hlRlRlF3BapFDBi-3" value="Interagiert direkt&lt;br&gt;mit dem Web Thilo" style="endArrow=classic;startArrow=classic;html=1;rounded=0;" parent="1" source="GDJU-_h7cvTp5wzcLNWm-17" target="9G3A0hlRlRlF3BapFDBi-1" edge="1">
          <mxGeometry width="50" height="50" relative="1" as="geometry">
            <mxPoint x="-40" y="520" as="sourcePoint" />
            <mxPoint x="10" y="470" as="targetPoint" />
          </mxGeometry>
        </mxCell>
        <mxCell id="9G3A0hlRlRlF3BapFDBi-4" value="kann via entsprechende&amp;nbsp;&lt;br&gt;QR Codes direkt&lt;br&gt;weitere Web Inhalte laden" style="endArrow=classic;startArrow=classic;html=1;rounded=0;entryX=0;entryY=0.75;entryDx=0;entryDy=0;" parent="1" source="9G3A0hlRlRlF3BapFDBi-2" target="9G3A0hlRlRlF3BapFDBi-1" edge="1">
          <mxGeometry width="50" height="50" relative="1" as="geometry">
            <mxPoint x="-110" y="210" as="sourcePoint" />
            <mxPoint x="-60" y="160" as="targetPoint" />
          </mxGeometry>
        </mxCell>
        <mxCell id="9G3A0hlRlRlF3BapFDBi-5" value="Die Links hinter den QR Codes&lt;br&gt;zeigen auf Short Links" style="endArrow=classic;startArrow=classic;html=1;rounded=0;exitX=0.167;exitY=0.003;exitDx=0;exitDy=0;exitPerimeter=0;" parent="1" source="51C_-ku2XXWJB70NUWzl-1" target="9G3A0hlRlRlF3BapFDBi-2" edge="1">
          <mxGeometry width="50" height="50" relative="1" as="geometry">
            <mxPoint x="-440" y="500" as="sourcePoint" />
            <mxPoint x="-390" y="450" as="targetPoint" />
          </mxGeometry>
        </mxCell>
        <mxCell id="9G3A0hlRlRlF3BapFDBi-6" value="Mapping zwischen Short Link &lt;br&gt;und Thilo App Inhalt" style="endArrow=classic;startArrow=classic;html=1;rounded=0;entryX=0;entryY=0;entryDx=0;entryDy=0;" parent="1" source="51C_-ku2XXWJB70NUWzl-1" target="GDJU-_h7cvTp5wzcLNWm-17" edge="1">
          <mxGeometry width="50" height="50" relative="1" as="geometry">
            <mxPoint x="-250" y="640" as="sourcePoint" />
            <mxPoint x="-200" y="590" as="targetPoint" />
            <Array as="points">
              <mxPoint x="70" y="550" />
            </Array>
          </mxGeometry>
        </mxCell>
        <mxCell id="WjO2JGe9H0yPc5W2S3Bc-2" value="&lt;h1&gt;Domain&lt;/h1&gt;&lt;p&gt;Muss möglichst losgelöst sein, da die Lösung an die Print Version gebunden ist. Sollte los gelöst sein von der PBS.&lt;/p&gt;&lt;p&gt;Somit sollte thilo im Domainnamen sein.&lt;/p&gt;&lt;p&gt;Domäne: thilo.scout.ch&lt;/p&gt;" style="text;html=1;strokeColor=none;fillColor=none;spacing=5;spacingTop=-20;whiteSpace=wrap;overflow=hidden;rounded=0;" parent="1" vertex="1">
          <mxGeometry x="900" y="413" width="290" height="180" as="geometry" />
        </mxCell>
        <mxCell id="TeCDgWFm1Cqbb7KI-0vC-1" value="Feedback" style="rounded=0;whiteSpace=wrap;html=1;align=left;verticalAlign=top;" parent="1" vertex="1">
          <mxGeometry x="640" y="670" width="210" height="80" as="geometry" />
        </mxCell>
        <mxCell id="TeCDgWFm1Cqbb7KI-0vC-2" value="&lt;b&gt;Web UI&lt;/b&gt;&lt;br&gt;feedback.thilo.scout.ch" style="rounded=0;whiteSpace=wrap;html=1;align=center;verticalAlign=middle;" parent="1" vertex="1">
          <mxGeometry x="705" y="680" width="130" height="60" as="geometry" />
        </mxCell>
        <mxCell id="TeCDgWFm1Cqbb7KI-0vC-3" value="TCP&amp;nbsp;27017&amp;nbsp;" style="endArrow=none;html=1;rounded=0;entryX=-0.015;entryY=0.883;entryDx=0;entryDy=0;entryPerimeter=0;exitX=1;exitY=0;exitDx=0;exitDy=0;" parent="1" source="GDJU-_h7cvTp5wzcLNWm-24" target="TeCDgWFm1Cqbb7KI-0vC-2" edge="1">
          <mxGeometry x="0.3166" y="2" width="50" height="50" relative="1" as="geometry">
            <mxPoint x="205.86422975614232" y="803.3731853853319" as="sourcePoint" />
            <mxPoint x="290" y="740" as="targetPoint" />
            <mxPoint as="offset" />
          </mxGeometry>
        </mxCell>
        <mxCell id="TeCDgWFm1Cqbb7KI-0vC-4" value="&lt;h1&gt;Feedback&lt;/h1&gt;&lt;p&gt;Webseite mit welcher Features für die Thilo App gewünscht werden können.&lt;/p&gt;" style="text;html=1;strokeColor=none;fillColor=none;spacing=5;spacingTop=-20;whiteSpace=wrap;overflow=hidden;rounded=0;" parent="1" vertex="1">
          <mxGeometry x="640" y="560" width="190" height="100" as="geometry" />
        </mxCell>
        <mxCell id="TeCDgWFm1Cqbb7KI-0vC-5" value="Kann Features fürs &lt;br&gt;Thilo App wünschen" style="endArrow=classic;startArrow=classic;html=1;rounded=0;exitX=0.038;exitY=0.056;exitDx=0;exitDy=0;exitPerimeter=0;" parent="1" source="TeCDgWFm1Cqbb7KI-0vC-1" target="9G3A0hlRlRlF3BapFDBi-1" edge="1">
          <mxGeometry x="0.3421" y="-2" width="50" height="50" relative="1" as="geometry">
            <mxPoint x="265.1659751037346" y="559" as="sourcePoint" />
            <mxPoint x="265.7302904564317" y="423" as="targetPoint" />
            <mxPoint as="offset" />
          </mxGeometry>
        </mxCell>
      </root>
    </mxGraphModel>
  </diagram>
  <diagram id="QJZ_c6H3R3aCsRLvmQHc" name="Infomaniak Architecture">
    <mxGraphModel dx="1426" dy="751" grid="1" gridSize="10" guides="1" tooltips="1" connect="1" arrows="1" fold="1" page="1" pageScale="1" pageWidth="850" pageHeight="1100" math="0" shadow="0">
      <root>
        <mxCell id="0" />
        <mxCell id="1" parent="0" />
        <mxCell id="qB08n0coJ7w81NAPxHJt-1" value="Environment - Backend" style="rounded=0;whiteSpace=wrap;html=1;fillColor=#dae8fc;strokeColor=#6c8ebf;align=left;verticalAlign=top;" vertex="1" parent="1">
          <mxGeometry x="360" y="360" width="370" height="270" as="geometry" />
        </mxCell>
        <mxCell id="qB08n0coJ7w81NAPxHJt-2" value="Load Balancer&lt;div&gt;&lt;br&gt;&lt;/div&gt;&lt;div&gt;- Public IP:&amp;nbsp;195.15.232.245&lt;/div&gt;&lt;div&gt;- Add-Ons: Let&#39;s Encrypt&lt;/div&gt;" style="rounded=0;whiteSpace=wrap;html=1;align=left;verticalAlign=top;" vertex="1" parent="1">
          <mxGeometry x="400" y="410" width="300" height="80" as="geometry" />
        </mxCell>
        <mxCell id="qB08n0coJ7w81NAPxHJt-3" value="Application Servers&lt;div&gt;&lt;br&gt;&lt;/div&gt;&lt;div&gt;- Public IP: none&lt;/div&gt;&lt;div&gt;- Add-Ons: Git-Push Deploy&lt;/div&gt;&lt;div&gt;- Env Variables: according App&lt;/div&gt;" style="rounded=0;whiteSpace=wrap;html=1;align=left;verticalAlign=top;" vertex="1" parent="1">
          <mxGeometry x="400" y="513" width="300" height="87" as="geometry" />
        </mxCell>
        <mxCell id="qB08n0coJ7w81NAPxHJt-4" value="NGINX" style="sketch=0;outlineConnect=0;fontColor=#232F3E;gradientColor=none;fillColor=#8C4FFF;strokeColor=none;dashed=0;verticalLabelPosition=bottom;verticalAlign=top;align=center;html=1;fontSize=12;fontStyle=0;aspect=fixed;pointerEvents=1;shape=mxgraph.aws4.gateway_load_balancer;" vertex="1" parent="1">
          <mxGeometry x="610" y="420" width="48" height="48" as="geometry" />
        </mxCell>
        <mxCell id="qB08n0coJ7w81NAPxHJt-5" value="" style="image;aspect=fixed;perimeter=ellipsePerimeter;html=1;align=center;shadow=0;dashed=0;spacingTop=3;image=img/lib/active_directory/internet_cloud.svg;" vertex="1" parent="1">
          <mxGeometry x="220" y="120" width="158.73" height="100" as="geometry" />
        </mxCell>
        <mxCell id="qB08n0coJ7w81NAPxHJt-6" value="http/s" style="endArrow=none;html=1;rounded=0;entryX=1;entryY=0.75;entryDx=0;entryDy=0;exitX=0.5;exitY=0;exitDx=0;exitDy=0;" edge="1" parent="1" source="qB08n0coJ7w81NAPxHJt-2" target="qB08n0coJ7w81NAPxHJt-5">
          <mxGeometry width="50" height="50" relative="1" as="geometry">
            <mxPoint x="240" y="280" as="sourcePoint" />
            <mxPoint x="290" y="230" as="targetPoint" />
          </mxGeometry>
        </mxCell>
        <mxCell id="qB08n0coJ7w81NAPxHJt-7" value="Node.JS" style="outlineConnect=0;dashed=0;verticalLabelPosition=bottom;verticalAlign=top;align=center;html=1;shape=mxgraph.aws3.android;fillColor=#8CC64F;gradientColor=none;" vertex="1" parent="1">
          <mxGeometry x="610" y="523" width="43.75" height="50" as="geometry" />
        </mxCell>
        <mxCell id="qB08n0coJ7w81NAPxHJt-9" value="GitHub" style="rounded=0;whiteSpace=wrap;html=1;align=left;verticalAlign=top;" vertex="1" parent="1">
          <mxGeometry x="875" y="106" width="375" height="134" as="geometry" />
        </mxCell>
        <mxCell id="qB08n0coJ7w81NAPxHJt-8" value="GitHub" style="verticalLabelPosition=bottom;html=1;verticalAlign=top;align=center;strokeColor=none;fillColor=#00BEF2;shape=mxgraph.azure.github_code;pointerEvents=1;" vertex="1" parent="1">
          <mxGeometry x="920" y="151.5" width="50" height="50" as="geometry" />
        </mxCell>
        <mxCell id="qB08n0coJ7w81NAPxHJt-10" value="https*&lt;div&gt;using Git-Push Addon&lt;/div&gt;" style="endArrow=classic;html=1;rounded=0;entryX=0.25;entryY=1;entryDx=0;entryDy=0;exitX=1;exitY=0.5;exitDx=0;exitDy=0;" edge="1" parent="1" source="qB08n0coJ7w81NAPxHJt-3" target="qB08n0coJ7w81NAPxHJt-9">
          <mxGeometry width="50" height="50" relative="1" as="geometry">
            <mxPoint x="800" y="380" as="sourcePoint" />
            <mxPoint x="850" y="330" as="targetPoint" />
          </mxGeometry>
        </mxCell>
        <mxCell id="qB08n0coJ7w81NAPxHJt-11" value="http" style="endArrow=none;html=1;rounded=0;entryX=0.5;entryY=1;entryDx=0;entryDy=0;exitX=0.5;exitY=0;exitDx=0;exitDy=0;" edge="1" parent="1" source="qB08n0coJ7w81NAPxHJt-3" target="qB08n0coJ7w81NAPxHJt-2">
          <mxGeometry width="50" height="50" relative="1" as="geometry">
            <mxPoint x="560" y="420" as="sourcePoint" />
            <mxPoint x="266" y="160" as="targetPoint" />
          </mxGeometry>
        </mxCell>
        <mxCell id="qB08n0coJ7w81NAPxHJt-12" value="Environment - Link" style="rounded=0;whiteSpace=wrap;html=1;fillColor=#dae8fc;strokeColor=#6c8ebf;align=left;verticalAlign=top;" vertex="1" parent="1">
          <mxGeometry x="360" y="670" width="370" height="270" as="geometry" />
        </mxCell>
        <mxCell id="qB08n0coJ7w81NAPxHJt-13" value="Load Balancer&lt;div&gt;&lt;br&gt;&lt;/div&gt;&lt;div&gt;- Public IP:&amp;nbsp;185.172.103.25&lt;/div&gt;&lt;div&gt;- Add-Ons: Let&#39;s Encrypt&lt;br&gt;&lt;/div&gt;" style="rounded=0;whiteSpace=wrap;html=1;align=left;verticalAlign=top;" vertex="1" parent="1">
          <mxGeometry x="400" y="720" width="300" height="80" as="geometry" />
        </mxCell>
        <mxCell id="qB08n0coJ7w81NAPxHJt-14" value="Application Servers&lt;div&gt;&lt;br&gt;&lt;/div&gt;&lt;div&gt;- Public IP:&amp;nbsp;195.15.205.139*&amp;nbsp;&lt;/div&gt;&lt;div&gt;- Add-Ons: FTP&lt;/div&gt;&lt;div&gt;*(required for CI/CD)&lt;br&gt;&lt;/div&gt;&lt;div&gt;&lt;br&gt;&lt;/div&gt;" style="rounded=0;whiteSpace=wrap;html=1;align=left;verticalAlign=top;" vertex="1" parent="1">
          <mxGeometry x="400" y="823" width="300" height="87" as="geometry" />
        </mxCell>
        <mxCell id="qB08n0coJ7w81NAPxHJt-15" value="NGINX" style="sketch=0;outlineConnect=0;fontColor=#232F3E;gradientColor=none;fillColor=#8C4FFF;strokeColor=none;dashed=0;verticalLabelPosition=bottom;verticalAlign=top;align=center;html=1;fontSize=12;fontStyle=0;aspect=fixed;pointerEvents=1;shape=mxgraph.aws4.gateway_load_balancer;" vertex="1" parent="1">
          <mxGeometry x="610" y="730" width="48" height="48" as="geometry" />
        </mxCell>
        <mxCell id="qB08n0coJ7w81NAPxHJt-17" value="http" style="endArrow=none;html=1;rounded=0;entryX=0.5;entryY=1;entryDx=0;entryDy=0;exitX=0.5;exitY=0;exitDx=0;exitDy=0;" edge="1" parent="1" source="qB08n0coJ7w81NAPxHJt-14" target="qB08n0coJ7w81NAPxHJt-13">
          <mxGeometry width="50" height="50" relative="1" as="geometry">
            <mxPoint x="560" y="730" as="sourcePoint" />
            <mxPoint x="266" y="470" as="targetPoint" />
          </mxGeometry>
        </mxCell>
        <mxCell id="qB08n0coJ7w81NAPxHJt-18" value="NGINX" style="sketch=0;outlineConnect=0;fontColor=#232F3E;gradientColor=none;fillColor=#8C4FFF;strokeColor=none;dashed=0;verticalLabelPosition=bottom;verticalAlign=top;align=center;html=1;fontSize=12;fontStyle=0;aspect=fixed;pointerEvents=1;shape=mxgraph.aws4.gateway_load_balancer;" vertex="1" parent="1">
          <mxGeometry x="607.88" y="839" width="48" height="48" as="geometry" />
        </mxCell>
        <mxCell id="qB08n0coJ7w81NAPxHJt-19" value="Environment - Frontend" style="rounded=0;whiteSpace=wrap;html=1;fillColor=#dae8fc;strokeColor=#6c8ebf;align=left;verticalAlign=top;" vertex="1" parent="1">
          <mxGeometry x="910" y="360" width="370" height="160" as="geometry" />
        </mxCell>
        <mxCell id="qB08n0coJ7w81NAPxHJt-20" value="Load Balancer&lt;div&gt;&lt;br&gt;&lt;/div&gt;&lt;div&gt;- Public IP:&amp;nbsp;84.16.77.185&lt;/div&gt;&lt;div&gt;- Add-Ons: Let&#39;s Encrypt, FTP&lt;br&gt;&lt;/div&gt;" style="rounded=0;whiteSpace=wrap;html=1;align=left;verticalAlign=top;" vertex="1" parent="1">
          <mxGeometry x="950" y="410" width="300" height="80" as="geometry" />
        </mxCell>
        <mxCell id="qB08n0coJ7w81NAPxHJt-25" value="http/s" style="endArrow=none;html=1;rounded=0;entryX=0;entryY=1;entryDx=0;entryDy=0;exitX=0;exitY=0.5;exitDx=0;exitDy=0;" edge="1" parent="1" source="qB08n0coJ7w81NAPxHJt-13" target="qB08n0coJ7w81NAPxHJt-5">
          <mxGeometry width="50" height="50" relative="1" as="geometry">
            <mxPoint x="560" y="420" as="sourcePoint" />
            <mxPoint x="266" y="160" as="targetPoint" />
          </mxGeometry>
        </mxCell>
        <mxCell id="qB08n0coJ7w81NAPxHJt-26" value="PHP" style="outlineConnect=0;dashed=0;verticalLabelPosition=bottom;verticalAlign=top;align=center;html=1;shape=mxgraph.aws3.android;fillColor=#5A69A4;gradientColor=none;" vertex="1" parent="1">
          <mxGeometry x="1180" y="420" width="43.75" height="50" as="geometry" />
        </mxCell>
        <mxCell id="qB08n0coJ7w81NAPxHJt-27" value="https*&lt;div&gt;using FTP Upload&lt;/div&gt;" style="endArrow=classic;html=1;rounded=0;entryX=0.5;entryY=0;entryDx=0;entryDy=0;exitX=0.5;exitY=1;exitDx=0;exitDy=0;" edge="1" parent="1" source="qB08n0coJ7w81NAPxHJt-9" target="qB08n0coJ7w81NAPxHJt-20">
          <mxGeometry width="50" height="50" relative="1" as="geometry">
            <mxPoint x="710" y="567" as="sourcePoint" />
            <mxPoint x="979" y="250" as="targetPoint" />
          </mxGeometry>
        </mxCell>
        <mxCell id="qB08n0coJ7w81NAPxHJt-28" value="https*&lt;div&gt;using FTP Upload&lt;/div&gt;" style="endArrow=classic;html=1;rounded=0;entryX=1;entryY=0.5;entryDx=0;entryDy=0;exitX=0.413;exitY=1.015;exitDx=0;exitDy=0;exitPerimeter=0;" edge="1" parent="1" source="qB08n0coJ7w81NAPxHJt-9" target="qB08n0coJ7w81NAPxHJt-14">
          <mxGeometry width="50" height="50" relative="1" as="geometry">
            <mxPoint x="1073" y="250" as="sourcePoint" />
            <mxPoint x="1110" y="420" as="targetPoint" />
          </mxGeometry>
        </mxCell>
      </root>
    </mxGraphModel>
  </diagram>
</mxfile>
